<svg id="Layer_1" data-name="Layer 1" xmlns="http://www.w3.org/2000/svg" viewBox="0 0 502.8 320.6"><defs><style>.cls-1{fill:#039;}.cls-2{fill:#8d8b55;}</style></defs><path class="cls-1" d="M74.1,174.2h-.4L46,94.7H25.3V244.9H46.9V153.5h.4l21.1,64.6H79.2l21.3-64.6h.4v91.4h21.5V94.7H101.5Zm126,56.6c2.9-5.5,4-13.1,4-21.8V173.8c0-8.7-1.1-16.3-4-21.7-5.1-9.3-15-15.4-28.1-15.4s-23,6.1-28.1,15.4c-2.9,5.4-4,13-4,21.7V209c0,8.7,1.1,16.3,4,21.8,5.1,9.2,15,15.4,28.1,15.4S195,240,200.1,230.8Zm-38.7-18.4v-42c0-8,4-12.2,10.6-12.2s10.5,4.2,10.5,12.2v42c0,8-4,12.2-10.5,12.2S161.4,220.4,161.4,212.4Zm80.4,22.8h.5c4.6,7,11.3,11,19.8,11,10.3,0,15.6-4,19.2-9.7s3.4-10.6,3.4-26V169.8c0-11.8-1.1-18.4-3.6-23-3.8-7-10.2-10.1-18.8-10.1-10.8,0-15,4.8-20.5,10.9v-9.7H220.3V288.2h21.5Zm0-63.7c0-7.8,4.3-13.3,10.8-13.3s10.5,5.9,10.5,14.5V212c0,6.7-2.3,12.6-10.5,12.6-6.1,0-10.8-4.8-10.8-11.6ZM345,136.7c-9.9,0-15.8,4.8-20.2,11.6h-.5V94.7H302.8V244.9h21.5V173c0-9.5,2.8-14.8,10.8-14.8s10.5,4.8,10.5,12.6v74.1h21.6V162.8C367.2,143.6,355.8,136.7,345,136.7Zm102.6,37.1c0-8.7-1.1-16.3-4.1-21.7-5-9.3-14.9-15.4-28-15.4s-23,6.1-28.1,15.4c-2.9,5.4-4,13-4,21.7V209c0,8.7,1.1,16.3,4,21.8,5.1,9.2,15,15.4,28.1,15.4s23-6.2,28-15.4c3-5.5,4.1-13.1,4.1-21.8ZM426,212.4c0,8-4,12.2-10.5,12.2s-10.6-4.2-10.6-12.2v-42c0-8,4-12.2,10.6-12.2s10.5,4.2,10.5,12.2Zm98.6-65.6c-3.8-7-10.2-10.1-18.8-10.1-10.8,0-15,4.8-20.5,10.9v-9.7H463.8V288.2h21.5v-53h.4c4.7,7,11.4,11,19.9,11,10.3,0,15.6-4,19.2-9.7s3.4-10.6,3.4-26V169.8C528.2,158,527.1,151.4,524.6,146.8Zm-18,65.2c0,6.7-2.3,12.6-10.5,12.6-6.1,0-10.8-4.8-10.8-11.6V171.5c0-7.8,4.2-13.3,10.8-13.3s10.5,5.9,10.5,14.5ZM181.1,302.6c-3.1,0-4.6,1.4-6.1,3a6.2,6.2,0,0,0-10.7.2h-.1V303h-5.9v29.1h5.9V312.5c0-2.6.7-4,2.9-4s2.9,1.3,2.9,3.5v20.1h5.8V312.5c0-2.6.8-4,3-4s2.8,1.3,2.8,3.5v20.1h5.9V309.8C187.5,304.5,184.1,302.6,181.1,302.6Zm19.4,18.5h-.1l-4-18.1h-6.2l8,27.8c-1.3,6.8-2.1,7.6-4.4,7.6h-1.4v5.5h1.7c3.5,0,6.8-1.5,8.1-6.7l8.3-34.2h-6Zm24.2-18.5c-3,0-4.1,1.4-5.6,3V303h-5.9v40.9h5.9V329.5h.1a6.3,6.3,0,0,0,5.4,3c2.8,0,4.3-1.1,5.2-2.7s1-2.9,1-7.1v-11c0-3.3-.3-5-1-6.3A5.4,5.4,0,0,0,224.7,302.6Zm.2,20.6c0,1.8-.6,3.4-2.9,3.4a3,3,0,0,1-2.9-3.2V312.1c0-2.1,1.1-3.6,2.9-3.6s2.9,1.6,2.9,4Zm16.5.7V291.2h-5.8v33.1c0,6.8,3.3,8.2,8.7,8.2v-5.6C242.1,326.7,241.4,326.1,241.4,323.9Zm13.7-21.3a9.3,9.3,0,0,0-6.4,2.5,10.3,10.3,0,0,0-2.6,6.3h5.7a3.3,3.3,0,0,1,3.3-2.9c2.2,0,2.9,1.5,2.9,3.5v3l-2.8-.2c-7.3,0-9.2,3.2-9.2,9.9s3.6,7.8,6.3,7.8,4.1-1.3,5.6-3.4h.1v3h5.9V311.8C263.9,305.7,260,302.6,255.1,302.6Zm2.9,21c0,2.3-1.2,3.7-3.1,3.7s-3.1-1.5-3.1-3.7,2.1-4.2,4.6-4.2l1.6.2Zm19.6-15.1c1.8,0,2.9,1.1,2.9,3.5h5.9c0-5.4-3.4-9.4-8.8-9.4a8.4,8.4,0,0,0-7.6,4.2,13.1,13.1,0,0,0-1.1,6v9.5a13.1,13.1,0,0,0,1.1,6,8.4,8.4,0,0,0,7.6,4.2,8.6,8.6,0,0,0,6.4-2.6,9,9,0,0,0,2.4-6.2h-5.9c-.1,1.2-.6,2.9-2.9,2.9a2.6,2.6,0,0,1-2.8-2.9V311.8C274.8,309.7,275.8,308.5,277.6,308.5Zm20.8-5.9a8.5,8.5,0,0,0-7.7,4.2,13.1,13.1,0,0,0-1.1,6v9.5a13.1,13.1,0,0,0,1.1,6,8.5,8.5,0,0,0,7.7,4.2,8.3,8.3,0,0,0,6.3-2.6,9,9,0,0,0,2.4-6.2h-5.9c-.1,1.2-.6,2.9-2.8,2.9a2.6,2.6,0,0,1-2.9-2.9v-3.9h11.6v-8.1C307.1,306.6,303.8,302.6,298.4,302.6Zm2.8,12.6h-5.7v-3.4c0-2.1,1.1-3.3,2.9-3.3s2.8,1.2,2.8,3.3Zm131.7,16.9h5.9v-5.8h-5.9ZM453,308.5c1.8,0,2.9,1.1,2.9,3.5h5.9c0-5.4-3.4-9.4-8.8-9.4a8.4,8.4,0,0,0-7.6,4.2,13.1,13.1,0,0,0-1.1,6v9.5a13.1,13.1,0,0,0,1.1,6,8.4,8.4,0,0,0,7.6,4.2,8.6,8.6,0,0,0,6.4-2.6,9,9,0,0,0,2.4-6.2h-5.9c-.1,1.2-.6,2.9-2.9,2.9a2.6,2.6,0,0,1-2.8-2.9V311.8C450.2,309.7,451.3,308.5,453,308.5Zm20.8-5.9a8.5,8.5,0,0,0-7.7,4.2,13.1,13.1,0,0,0-1.1,6v9.5a13.1,13.1,0,0,0,1.1,6,9.1,9.1,0,0,0,15.3,0,13.1,13.1,0,0,0,1.1-6v-9.5a13.1,13.1,0,0,0-1.1-6A8.4,8.4,0,0,0,473.8,302.6Zm2.8,20.7c0,2.1-1,3.3-2.8,3.3s-2.9-1.2-2.9-3.3V311.8c0-2.1,1.1-3.3,2.9-3.3s2.8,1.2,2.8,3.3ZM510,302.6a7.4,7.4,0,0,0-6.1,3,6.4,6.4,0,0,0-5.3-3,6.3,6.3,0,0,0-5.5,3.2H493V303h-5.8v29.1H493V312.5c0-2.6.8-4,2.9-4s2.9,1.3,2.9,3.5v20.1h5.9V312.5c0-2.6.7-4,2.9-4s2.9,1.3,2.9,3.5v20.1h5.8V309.8C516.3,304.5,512.9,302.6,510,302.6Z" transform="translate(-25.3 -23.3)"/><path class="cls-2" d="M323.2,302.6a6.3,6.3,0,0,0-5.5,3.2h-.1V291.2h-5.9v40.9h5.9V312.5c0-2.6.8-4,2.9-4s2.9,1.3,2.9,3.5v20.1h5.9V309.8C329.3,304.5,326.2,302.6,323.2,302.6Zm19.4,0a8.4,8.4,0,0,0-7.6,4.2,13.1,13.1,0,0,0-1.1,6v9.5a13.1,13.1,0,0,0,1.1,6,9.1,9.1,0,0,0,15.3,0,13.1,13.1,0,0,0,1.1-6v-9.5a13.1,13.1,0,0,0-1.1-6A8.5,8.5,0,0,0,342.6,302.6Zm2.9,20.7c0,2.1-1.1,3.3-2.9,3.3s-2.8-1.2-2.8-3.3V311.8c0-2.1,1.1-3.3,2.8-3.3s2.9,1.2,2.9,3.3Zm21.2-7.8-3.4-1.4c-2.2-.9-2.5-1.9-2.5-3a2.8,2.8,0,0,1,2.9-2.9,2.9,2.9,0,0,1,3,2.9h5.5c-.1-4.8-3.5-8.5-8.3-8.5a8.5,8.5,0,0,0-8.6,8.5c0,4,2.2,6.7,5.9,8.1l2.8,1c2.3.9,2.9,2,2.9,3.6a3.1,3.1,0,0,1-3.2,3.1c-2.2,0-3-1.6-3.2-3.2H355c.2,5.7,4.1,8.8,8.7,8.8a8.7,8.7,0,0,0,8.8-8.8C372.5,320.2,371.1,317.1,366.7,315.5Zm15.8-21.4h-5.9V303h-2.9v4.6h2.9v17.7c0,3.1,1.8,6.8,7.1,6.8h2.4v-5.5c-2.6,0-3.6-.2-3.6-2.9V307.6h3.6V303h-3.6Zm14.4,8.5a8.5,8.5,0,0,0-7.7,4.2,13.1,13.1,0,0,0-1.1,6v9.5a13.1,13.1,0,0,0,1.1,6,8.5,8.5,0,0,0,7.7,4.2,8.3,8.3,0,0,0,6.3-2.6,9,9,0,0,0,2.4-6.2h-5.9c-.1,1.2-.6,2.9-2.8,2.9a2.6,2.6,0,0,1-2.9-2.9v-3.9h11.6v-8.1C405.6,306.6,402.3,302.6,396.9,302.6Zm2.8,12.6H394v-3.4c0-2.1,1.1-3.3,2.9-3.3s2.8,1.2,2.8,3.3Zm22.2-9.6h-.1a6.3,6.3,0,0,0-5.4-3c-2.8,0-4.3,1.1-5.2,2.7s-.9,2.9-.9,7.1v11c0,3.3.2,5,.9,6.3a5.4,5.4,0,0,0,5.1,2.8c3,0,4.1-1.4,5.6-3v2.6h5.9V291.2h-5.9Zm0,17.4c0,2.1-1.1,3.6-2.9,3.6s-2.9-1.6-2.9-4V312c0-1.9.6-3.5,2.9-3.5a3,3,0,0,1,2.9,3.2ZM488.5,97.3A68.7,68.7,0,0,0,485,81.4a83.4,83.4,0,0,0-16.9-28.1,91.6,91.6,0,0,0-26.4-20.1,95.2,95.2,0,0,0-15.6-6.1,102.3,102.3,0,0,0-16.5-3.2,127.8,127.8,0,0,0-16.4-.5,115.4,115.4,0,0,0-16.5,1.7,90.9,90.9,0,0,0-31,11.6,75.2,75.2,0,0,0-23.8,22.8,68.3,68.3,0,0,0-7.2,14.6c-.4,1.2-.9,2.5-1.3,3.8s-.7,2.5-1.1,3.8l-.8,3.9-.6,3.9,1.6-3.6,1.7-3.5,1.8-3.5,1.9-3.3A79,79,0,0,1,327,63.4a77,77,0,0,1,23.6-17.8,91.1,91.1,0,0,1,28.1-8.3,122.2,122.2,0,0,1,29.6-.4,90.1,90.1,0,0,1,52.5,23.6A87.5,87.5,0,0,1,479.1,84a75,75,0,0,1,5.8,14,68,68,0,0,1,1.8,7.5q.6,3.9.9,7.8a41.7,41.7,0,0,0,1-7.9A54.8,54.8,0,0,0,488.5,97.3Z" transform="translate(-25.3 -23.3)"/></svg>